<svg width="33" height="32" viewBox="0 0 33 32" fill="none" xmlns="http://www.w3.org/2000/svg">
<ellipse cx="16.2769" cy="16" rx="16.2769" ry="16" fill="#ADA7FF"/>
<path d="M16.7859 9.4999C14.2578 7.01485 10.158 7.01485 7.62991 9.4999C5.10185 11.9849 5.10185 16.0151 7.62991 18.5001C9.86944 20.7015 13.3428 20.95 15.8626 19.251L19.0144 22.7166C19.5503 23.3081 20.4818 23.3324 21.0506 22.7733L21.133 22.6923C21.7019 22.1331 21.6771 21.2174 21.0753 20.6907L17.5498 17.5925C19.281 15.1129 19.0254 11.7013 16.7859 9.4999ZM15.2141 16.955C13.5544 18.5865 10.8614 18.5865 9.2017 16.955C7.54198 15.3236 7.54198 12.6764 9.2017 11.045C10.8614 9.41346 13.5544 9.41346 15.2141 11.045C16.8766 12.6791 16.8738 15.3236 15.2141 16.955Z" fill="#FEFDFE"/>
</svg>
