<svg width="20" height="20" viewBox="0 0 20 20" fill="none" xmlns="http://www.w3.org/2000/svg">
<path d="M18.4146 8.64508C18.6316 8.41981 18.75 8.14557 18.75 7.83215C18.75 7.17593 18.237 6.66663 17.586 6.66663C17.2604 6.66663 16.9645 6.79395 16.7376 7.01922L9.99014 13.8752L3.2624 7.01922C3.03551 6.79395 2.72971 6.66662 2.41404 6.66662C1.76297 6.66662 1.25 7.17593 1.25 7.83215C1.25 8.14557 1.36838 8.41981 1.5854 8.63528L9.08258 16.2553C9.33906 16.5295 9.65474 16.6666 10 16.6666C10.3453 16.6666 10.6412 16.5295 10.9076 16.2651L18.4146 8.64508Z" fill="#E9E9F3"/>
</svg>
